<svg id="visual" viewBox="0 0 2000 1370" width="2000" height="1370" xmlns="http://www.w3.org/2000/svg" xmlns:xlink="http://www.w3.org/1999/xlink" version="1.1"><g><g transform="translate(545 532)"><path d="M192.7 -61.4C224.3 34.9 207.2 148.3 137.3 202.1C67.4 256 -55.2 250.4 -133.9 191.5C-212.6 132.7 -247.3 20.5 -217.7 -72.9C-188 -166.4 -94 -241.2 -6.8 -239C80.5 -236.8 161 -157.6 192.7 -61.4Z" fill="none" stroke="#6891A3" stroke-width="20"></path></g><g transform="translate(1727 585)"><path d="M184.9 -54.2C215.5 33.9 199.4 143.1 132.7 194.3C66.1 245.4 -51.1 238.6 -128 181.5C-204.9 124.4 -241.4 17 -213.4 -67.6C-185.3 -152.3 -92.7 -214.3 -7.7 -211.8C77.2 -209.3 154.4 -142.3 184.9 -54.2Z" fill="none" stroke="#6891A3" stroke-width="20"></path></g><g transform="translate(116 1109)"><path d="M130.4 -42.4C150.8 20.3 136.5 94.2 87.5 132.6C38.6 171 -44.9 173.9 -96.4 135.8C-147.9 97.7 -167.4 18.5 -146 -45.6C-124.5 -109.8 -62.3 -158.8 -3.6 -157.7C55 -156.5 110.1 -105.1 130.4 -42.4Z" fill="none" stroke="#6891A3" stroke-width="20"></path></g></g></svg>