<svg xmlns="http://www.w3.org/2000/svg" viewBox="0 0 500 500"><g id="freepik--background-complete--inject-2"><path d="M449,256.48a11.74,11.74,0,0,1-2.92,3.92,8,8,0,0,1-6.85,1.67,11.79,11.79,0,0,1-6.14-3,41.17,41.17,0,0,0-5.19-4,16.94,16.94,0,0,0-6.53-2.42c-1.63-.27-3.26-.45-4.89-.61a12.23,12.23,0,0,1-6.1-2.21,8.17,8.17,0,0,1-3.65-8.38,10.76,10.76,0,0,1,6.28-8.34c1.76-.87,3.64-1.53,5.47-2.28.83-.34,1.66-.66,2.49-1a10.68,10.68,0,0,0,3.67-2.85c.61-.67,1.22-1.34,1.84-2a9.23,9.23,0,0,1,8.72-2.79,14.42,14.42,0,0,1,7.07,3.23,9,9,0,0,1,3.47,7.51c0,.89-.06,1.79-.15,2.67a12.36,12.36,0,0,0,1.06,6.49C447.48,244,448.3,246,449,248a11.63,11.63,0,0,1,.5,6.75C449.37,255.31,449.16,255.89,449,256.48Z" style="fill:#f5f5f5"></path><path d="M440.53,215.4a8.36,8.36,0,0,1-3.83,4.24,6.06,6.06,0,0,1-2.4.69,6.48,6.48,0,0,1-5.11-2,7.67,7.67,0,0,1-1.87-2.83c-1.71-4.85-.79-8.87,2.83-12a6.5,6.5,0,0,1,2-1.08,6.41,6.41,0,0,1,7,2.22,9.4,9.4,0,0,1,2.11,5A10.89,10.89,0,0,1,440.53,215.4Z" style="fill:#f5f5f5"></path><path d="M458.34,221a11.08,11.08,0,0,1-6.68,5.33,9.39,9.39,0,0,1-2.63.33,6,6,0,0,1-5.84-4.23,7.47,7.47,0,0,1,.17-4.76,10.88,10.88,0,0,1,6.22-6.55,8.66,8.66,0,0,1,3.84-.71,6.07,6.07,0,0,1,5.73,4.17,7.48,7.48,0,0,1-.1,4.69C458.83,220,458.51,220.63,458.34,221Z" style="fill:#f5f5f5"></path><path d="M409.85,215.2a8.07,8.07,0,0,1,2.41-3.26c2.68-2.06,6.27-1.52,8.65,1.32a10,10,0,0,1,2.37,6,9.24,9.24,0,0,1-2.39,7.35,6.81,6.81,0,0,1-1.39,1.1,6,6,0,0,1-7.26-1,9.47,9.47,0,0,1-2.72-4.62A10.64,10.64,0,0,1,409.85,215.2Z" style="fill:#f5f5f5"></path><path d="M464.25,238.48a10.75,10.75,0,0,1-7.35,5.9,7.72,7.72,0,0,1-4.1,0,5.68,5.68,0,0,1-4-3.59,6.56,6.56,0,0,1,.09-4.82,10.5,10.5,0,0,1,7-6.47,7.76,7.76,0,0,1,5.8.25,5.53,5.53,0,0,1,3,3.38A7.55,7.55,0,0,1,464.25,238.48Z" style="fill:#f5f5f5"></path><path d="M389,135a20.36,20.36,0,0,1-6.33,5.71c-3.9,2.29-8.07,2-12.3.52a20.57,20.57,0,0,1-9.51-7.2,72.94,72.94,0,0,0-7.51-8.61A29.56,29.56,0,0,0,343,119.05c-2.69-1-5.43-1.89-8.17-2.72a21.31,21.31,0,0,1-9.69-5.86c-4.28-4.65-5.52-9.8-3.39-15.59,2.36-6.41,7-10.37,13.6-12.13,3.31-.89,6.76-1.38,10.14-2l4.6-.88a18.47,18.47,0,0,0,7.27-3.64c1.27-.93,2.55-1.87,3.83-2.79,4.83-3.47,10.14-3.94,15.88-1.8a25.05,25.05,0,0,1,11,7.94,15.68,15.68,0,0,1,3.38,14c-.35,1.52-.71,3-1.18,4.52a21.69,21.69,0,0,0-.39,11.48c.8,3.6,1.53,7.22,2.08,10.86a20.17,20.17,0,0,1-1.43,11.72C390.08,133.13,389.52,134.05,389,135Z" style="fill:#ebebeb"></path><path d="M388.56,61.77a14.71,14.71,0,0,1-8,6,10.5,10.5,0,0,1-4.34.36A11.29,11.29,0,0,1,368.13,63a13.05,13.05,0,0,1-2.23-5.48c-1.28-8.89,1.67-15.46,8.93-19.57a10.94,10.94,0,0,1,3.86-1.14c4.51-.63,8.91,1.82,11.26,6.18a16.5,16.5,0,0,1,1.91,9.29A19.25,19.25,0,0,1,388.56,61.77Z" style="fill:#ebebeb"></path><path d="M417.12,77.5c-3.63,3.92-7.71,6.43-13.25,6.86a16.28,16.28,0,0,1-4.62-.34,10.46,10.46,0,0,1-8.55-9.23,13,13,0,0,1,1.91-8.09,19,19,0,0,1,12.88-9.09,15,15,0,0,1,6.82.09,10.58,10.58,0,0,1,8.38,9.09,13,13,0,0,1-1.77,8C418.31,75.88,417.55,76.87,417.12,77.5Z" style="fill:#ebebeb"></path><path d="M336.09,51a13.82,13.82,0,0,1,5.24-4.76c5.29-2.62,11.24-.47,14.36,5.2a17.57,17.57,0,0,1,2,11c-.63,4.85-2.59,8.94-6.61,11.77a11.49,11.49,0,0,1-2.75,1.4c-4.37,1.56-9.08-.1-12.07-4.23a16.55,16.55,0,0,1-3.09-8.84A18.55,18.55,0,0,1,336.09,51Z" style="fill:#ebebeb"></path><path d="M421.29,109.39A18.72,18.72,0,0,1,406.7,117a13.49,13.49,0,0,1-7-1.47,10,10,0,0,1-5.63-7.51,11.56,11.56,0,0,1,1.8-8.23A18.31,18.31,0,0,1,410,91.07a13.39,13.39,0,0,1,9.84,2.4,9.61,9.61,0,0,1,4.05,6.81C424.29,103.6,423.22,106.4,421.29,109.39Z" style="fill:#ebebeb"></path><path d="M261.79,109.54a13.79,13.79,0,0,1,.89,5.69c-.14,3-1.82,5.31-4.24,7.14a13.86,13.86,0,0,1-7.58,2.72,48.15,48.15,0,0,0-7.63,1.07,19.8,19.8,0,0,0-7.43,3.51c-1.56,1.14-3.07,2.37-4.55,3.61a14.35,14.35,0,0,1-6.89,3.31c-4.21.71-7.57-.49-10.06-3.83a12.67,12.67,0,0,1-1.84-12.16c.72-2.2,1.71-4.33,2.59-6.49.39-1,.81-2,1.2-2.92a12.66,12.66,0,0,0,.62-5.45c-.06-1.07-.12-2.13-.16-3.2a10.84,10.84,0,0,1,4.84-9.64,17,17,0,0,1,8.55-3.29,10.56,10.56,0,0,1,9.18,3.27c.73.76,1.46,1.52,2.12,2.33a14.65,14.65,0,0,0,6.35,4.46c2.33.87,4.64,1.8,6.9,2.83a13.53,13.53,0,0,1,6.1,5.13C261.13,108.24,261.44,108.9,261.79,109.54Z" style="fill:#f5f5f5"></path><path d="M220.23,82.78a9.91,9.91,0,0,1,.41,6.73,7,7,0,0,1-1.4,2.59,7.64,7.64,0,0,1-5.87,2.67,8.78,8.78,0,0,1-3.92-.76c-5.5-2.55-8.12-6.65-7.77-12.27a7.42,7.42,0,0,1,.77-2.6,7.56,7.56,0,0,1,7.66-4.08,11.15,11.15,0,0,1,5.95,2.34A13,13,0,0,1,220.23,82.78Z" style="fill:#f5f5f5"></path><path d="M239.66,72.44a13.08,13.08,0,0,1-1,10,11.05,11.05,0,0,1-1.9,2.49,7.06,7.06,0,0,1-8.37,1.42,8.78,8.78,0,0,1-3.87-4.05,12.87,12.87,0,0,1-.39-10.64,10.09,10.09,0,0,1,2.57-3.82,7.13,7.13,0,0,1,8.23-1.39,8.77,8.77,0,0,1,3.87,4C239.18,71.17,239.45,72,239.66,72.44Z" style="fill:#f5f5f5"></path><path d="M194.77,108.46a9.36,9.36,0,0,1-.75-4.72c.47-4,3.88-6.53,8.24-6.2a12,12,0,0,1,7,2.94,10.92,10.92,0,0,1,4.21,8.08,8.2,8.2,0,0,1-.22,2.07,7.05,7.05,0,0,1-6.85,5.26,11.06,11.06,0,0,1-6.13-1.52A12.49,12.49,0,0,1,194.77,108.46Z" style="fill:#f5f5f5"></path><path d="M259.22,81.85a12.64,12.64,0,0,1-1.09,11,9.2,9.2,0,0,1-3.42,3.42,6.71,6.71,0,0,1-6.32.41,7.73,7.73,0,0,1-4-4,12.36,12.36,0,0,1,.29-11.19,9,9,0,0,1,5-4.68A6.49,6.49,0,0,1,255,77,8.9,8.9,0,0,1,259.22,81.85Z" style="fill:#f5f5f5"></path><path d="M140.35,224.16a15.41,15.41,0,0,1,1,6.37c-.15,3.42-2,6-4.73,8a15.53,15.53,0,0,1-8.49,3.09,54.16,54.16,0,0,0-8.56,1.23,22.27,22.27,0,0,0-8.31,4c-1.75,1.29-3.43,2.67-5.09,4.07a16.21,16.21,0,0,1-7.71,3.75c-4.72.81-8.5-.52-11.3-4.26a14.18,14.18,0,0,1-2.12-13.63c.8-2.47,1.9-4.86,2.87-7.29.44-1.1.9-2.19,1.33-3.29a14,14,0,0,0,.68-6.11c-.07-1.2-.14-2.39-.2-3.59-.21-4.49,1.67-8.06,5.39-10.83a19,19,0,0,1,9.58-3.73A11.83,11.83,0,0,1,115,205.57c.82.85,1.64,1.7,2.39,2.6a16.42,16.42,0,0,0,7.14,5c2.62,1,5.22,2,7.75,3.14a15.2,15.2,0,0,1,6.86,5.73C139.61,222.71,140,223.44,140.35,224.16Z" style="fill:#f5f5f5"></path><path d="M93.62,194.32a11.1,11.1,0,0,1,.49,7.55,7.88,7.88,0,0,1-1.56,2.91,8.55,8.55,0,0,1-6.58,3,10,10,0,0,1-4.4-.83c-6.17-2.84-9.13-7.42-8.77-13.73a8.6,8.6,0,0,1,.86-2.92,8.48,8.48,0,0,1,8.57-4.62,12.58,12.58,0,0,1,6.69,2.61A14.59,14.59,0,0,1,93.62,194.32Z" style="fill:#f5f5f5"></path><path d="M115.36,182.64a14.68,14.68,0,0,1-1.08,11.25,12.56,12.56,0,0,1-2.12,2.79,7.92,7.92,0,0,1-9.38,1.64,9.74,9.74,0,0,1-4.36-4.54,14.39,14.39,0,0,1-.48-11.93,11.16,11.16,0,0,1,2.86-4.29A8,8,0,0,1,110,176a9.87,9.87,0,0,1,4.36,4.41C114.83,181.22,115.14,182.11,115.36,182.64Z" style="fill:#f5f5f5"></path><path d="M65.18,223.24a10.41,10.41,0,0,1-.87-5.29c.51-4.44,4.32-7.34,9.21-7a13.37,13.37,0,0,1,7.86,3.26,12.24,12.24,0,0,1,4.76,9,8.79,8.79,0,0,1-.24,2.33c-.81,3.42-3.8,5.73-7.66,5.93a12.53,12.53,0,0,1-6.89-1.67A14.07,14.07,0,0,1,65.18,223.24Z" style="fill:#f5f5f5"></path><path d="M137.35,193.1a14.2,14.2,0,0,1-1.18,12.4,10.22,10.22,0,0,1-3.82,3.85,7.55,7.55,0,0,1-7.09.49,8.74,8.74,0,0,1-4.49-4.53,13.89,13.89,0,0,1,.28-12.56,10.16,10.16,0,0,1,5.58-5.26,7.24,7.24,0,0,1,6,.23A10,10,0,0,1,137.35,193.1Z" style="fill:#f5f5f5"></path><path d="M135.91,136a17.94,17.94,0,0,1-3.39,6.72c-2.48,3.12-6,4.24-10,4.33a18.08,18.08,0,0,1-10.1-2.89,64.2,64.2,0,0,0-8.92-4.69,26,26,0,0,0-10.55-2c-2.53,0-5.06.18-7.58.36a18.71,18.71,0,0,1-9.83-1.74c-5-2.46-7.65-6.3-7.74-11.73-.1-6,2.46-10.76,7.32-14.31,2.45-1.78,5.12-3.28,7.7-4.9,1.16-.73,2.34-1.45,3.5-2.19a16.47,16.47,0,0,0,4.82-5.29c.75-1.18,1.5-2.36,2.26-3.52,2.87-4.39,7.09-6.46,12.49-6.52a22.05,22.05,0,0,1,11.57,3,13.83,13.83,0,0,1,7.25,10.47c.19,1.36.38,2.73.46,4.09a19.2,19.2,0,0,0,3.33,9.57c1.81,2.7,3.56,5.45,5.17,8.26a17.78,17.78,0,0,1,2.54,10.1C136.2,134.12,136,135.06,135.91,136Z" style="fill:#ebebeb"></path><path d="M112.26,75.93a13,13,0,0,1-4.69,7.45,9.3,9.3,0,0,1-3.46,1.67,9.93,9.93,0,0,1-8.27-1.65,11.55,11.55,0,0,1-3.58-3.79c-3.88-6.9-3.54-13.24,1.12-18.94a9.64,9.64,0,0,1,2.81-2.16A9.85,9.85,0,0,1,107.42,60a14.67,14.67,0,0,1,4.52,7A17,17,0,0,1,112.26,75.93Z" style="fill:#ebebeb"></path><path d="M140.74,79.78c-1.73,4.38-4.29,7.74-8.71,9.85a14.38,14.38,0,0,1-3.91,1.2,9.22,9.22,0,0,1-10-4.88,11.39,11.39,0,0,1-1-7.25,16.81,16.81,0,0,1,7.7-11.58A13.27,13.27,0,0,1,130.49,65a9.31,9.31,0,0,1,9.78,4.81A11.43,11.43,0,0,1,141.36,77C141.21,78.07,140.89,79.12,140.74,79.78Z" style="fill:#ebebeb"></path><path d="M65.68,83.74a12.2,12.2,0,0,1,2.8-5.58c3.51-3.84,9.09-4,13.46-.29a15.52,15.52,0,0,1,5.17,8.44c1,4.19.72,8.17-1.69,11.78a10.21,10.21,0,0,1-1.81,2c-3.11,2.67-7.5,2.8-11.28.36A14.65,14.65,0,0,1,67,94.19,16.36,16.36,0,0,1,65.68,83.74Z" style="fill:#ebebeb"></path><path d="M154.31,104.68a16.49,16.49,0,0,1-9.59,10.87,12,12,0,0,1-6.23,1,8.77,8.77,0,0,1-7-4.39,10.17,10.17,0,0,1-1.14-7.34,16.14,16.14,0,0,1,8.85-11.64,11.85,11.85,0,0,1,8.86-1.15,8.5,8.5,0,0,1,5.49,4.31C154.93,99,155,101.6,154.31,104.68Z" style="fill:#ebebeb"></path></g></svg>
